<svg xmlns="http://www.w3.org/2000/svg" version="1.1" viewBox="-5.0 -10.0 110.0 135.0">
 <g>
  <path d="m18.43 1.8359c0.14453-1.1133 1.7617-1.1133 1.9023 0 1.1055 8.668 7.9297 15.488 16.594 16.594 1.1172 0.14453 1.1172 1.7617 0 1.9023-8.6641 1.1055-15.488 7.9297-16.594 16.594-0.14062 1.1172-1.7578 1.1172-1.9023 0-1.1055-8.6641-7.9258-15.488-16.594-16.594-1.1133-0.14062-1.1133-1.7578 0-1.9023 8.668-1.1055 15.488-7.9258 16.594-16.594z"/>
  <path d="m58.293 23.434c0.25781-2.0117 3.1719-2.0117 3.4258 0 2.3242 18.203 16.66 32.539 34.863 34.859 2.0117 0.25781 2.0117 3.1719 0 3.4258-18.203 2.3242-32.539 16.66-34.863 34.863-0.25391 2.0117-3.168 2.0117-3.4258 0-2.3203-18.203-16.656-32.539-34.859-34.863-2.0117-0.25391-2.0117-3.168 0-3.4258 18.203-2.3203 32.539-16.656 34.859-34.859z"/>
 </g>
<text x="0.0" y="117.5" font-size="5.0" font-weight="bold" font-family="Arbeit Regular, Helvetica, Arial-Unicode, Arial, Sans-serif" fill="#000000">Created by Palash Jain</text><text x="0.0" y="122.5" font-size="5.0" font-weight="bold" font-family="Arbeit Regular, Helvetica, Arial-Unicode, Arial, Sans-serif" fill="#000000">from Noun Project</text></svg>