<svg xmlns="http://www.w3.org/2000/svg" viewBox="-4 -4 32 32">
  <path fill-rule="evenodd" clip-rule="evenodd" d="M 2.5,2.5 C 8.5,2.5 14.5,2.5 20.5,2.5C 20.5,8.5 20.5,14.5 20.5,20.5C 14.5,20.5 8.5,20.5 2.5,20.5C 2.5,14.5 2.5,8.5 2.5,2.5 Z M 4.5,4.5 C 9.16667,4.5 13.8333,4.5 18.5,4.5C 18.5,9.16667 18.5,13.8333 18.5,18.5C 13.8333,18.5 9.16667,18.5 4.5,18.5C 4.5,13.8333 4.5,9.16667 4.5,4.5 Z"/>
  <path fill-rule="evenodd" clip-rule="evenodd" d="M 10.5,7.5 C 12.0481,7.82124 12.7148,8.82124 12.5,10.5C 16.5,11.1667 16.5,11.8333 12.5,12.5C 11.8333,16.5 11.1667,16.5 10.5,12.5C 6.5,11.8333 6.5,11.1667 10.5,10.5C 10.5,9.5 10.5,8.5 10.5,7.5 Z"/>
</svg>
